<svg width="55" height="65" viewBox="0 0 87 65" fill="none" xmlns="http://www.w3.org/2000/svg">
<path d="M14.7155 27L10.8689 20.206H9.22039V27H5.72348V9.5654H12.2677C13.6165 9.5654 14.7655 9.80685 15.7147 10.2898C16.6638 10.756 17.3715 11.3971 17.8378 12.2131C18.3207 13.0124 18.5621 13.9116 18.5621 14.9107C18.5621 16.0597 18.2291 17.1004 17.563 18.0329C16.8969 18.9488 15.9062 19.5816 14.5906 19.9312L18.762 27H14.7155ZM9.22039 17.5833H12.1428C13.092 17.5833 13.7997 17.3585 14.2659 16.9089C14.7322 16.4427 14.9653 15.8016 14.9653 14.9856C14.9653 14.1863 14.7322 13.5702 14.2659 13.1372C13.7997 12.6876 13.092 12.4628 12.1428 12.4628H9.22039V17.5833ZM29.8178 27.1748C28.1859 27.1748 26.6873 26.7919 25.3218 26.0259C23.9563 25.2599 22.874 24.2025 22.0747 22.8537C21.2754 21.4882 20.8757 19.9479 20.8757 18.2327C20.8757 16.5342 21.2754 15.0106 22.0747 13.6618C22.874 12.2963 23.9563 11.2306 25.3218 10.4646C26.6873 9.69861 28.1859 9.31562 29.8178 9.31562C31.4664 9.31562 32.965 9.69861 34.3139 10.4646C35.6793 11.2306 36.7534 12.2963 37.536 13.6618C38.3353 15.0106 38.735 16.5342 38.735 18.2327C38.735 19.9479 38.3353 21.4882 37.536 22.8537C36.7534 24.2025 35.6793 25.2599 34.3139 26.0259C32.9484 26.7919 31.4497 27.1748 29.8178 27.1748ZM29.8178 24.0526C30.8669 24.0526 31.7911 23.8195 32.5904 23.3532C33.3897 22.8703 34.0141 22.1876 34.4637 21.305C34.9133 20.4225 35.1381 19.3984 35.1381 18.2327C35.1381 17.0671 34.9133 16.0513 34.4637 15.1854C34.0141 14.3029 33.3897 13.6285 32.5904 13.1622C31.7911 12.696 30.8669 12.4628 29.8178 12.4628C28.7688 12.4628 27.8362 12.696 27.0203 13.1622C26.221 13.6285 25.5966 14.3029 25.1469 15.1854C24.6973 16.0513 24.4725 17.0671 24.4725 18.2327C24.4725 19.3984 24.6973 20.4225 25.1469 21.305C25.5966 22.1876 26.221 22.8703 27.0203 23.3532C27.8362 23.8195 28.7688 24.0526 29.8178 24.0526ZM49.4294 27.1748C47.7975 27.1748 46.2988 26.7919 44.9334 26.0259C43.5679 25.2599 42.4855 24.2025 41.6863 22.8537C40.887 21.4882 40.4873 19.9479 40.4873 18.2327C40.4873 16.5342 40.887 15.0106 41.6863 13.6618C42.4855 12.2963 43.5679 11.2306 44.9334 10.4646C46.2988 9.69861 47.7975 9.31562 49.4294 9.31562C51.078 9.31562 52.5766 9.69861 53.9254 10.4646C55.2909 11.2306 56.365 12.2963 57.1476 13.6618C57.9469 15.0106 58.3465 16.5342 58.3465 18.2327C58.3465 19.9479 57.9469 21.4882 57.1476 22.8537C56.365 24.2025 55.2909 25.2599 53.9254 26.0259C52.56 26.7919 51.0613 27.1748 49.4294 27.1748ZM49.4294 24.0526C50.4785 24.0526 51.4027 23.8195 52.202 23.3532C53.0013 22.8703 53.6257 22.1876 54.0753 21.305C54.5249 20.4225 54.7497 19.3984 54.7497 18.2327C54.7497 17.0671 54.5249 16.0513 54.0753 15.1854C53.6257 14.3029 53.0013 13.6285 52.202 13.1622C51.4027 12.696 50.4785 12.4628 49.4294 12.4628C48.3803 12.4628 47.4478 12.696 46.6319 13.1622C45.8326 13.6285 45.2081 14.3029 44.7585 15.1854C44.3089 16.0513 44.0841 17.0671 44.0841 18.2327C44.0841 19.3984 44.3089 20.4225 44.7585 21.305C45.2081 22.1876 45.8326 22.8703 46.6319 23.3532C47.4478 23.8195 48.3803 24.0526 49.4294 24.0526ZM79.9564 9.5654V27H76.4595V15.66L71.7886 27H69.1409L64.4451 15.66V27H60.9481V9.5654H64.9196L70.4647 22.5289L76.0098 9.5654H79.9564Z" fill="#E9E9E9"/>
<g clip-path="url(#clip0_154_190)">
<path d="M5.63474 64.645H3.62034L3.56998 60.9617H0L12.6348 44.6752H21.9962V43.0444L24.5646 41.7741L26.8532 42.9778V45.1024L29.4215 45.0303L22.3543 54.1664H24.2792L39.9972 33.5587L53.0684 37.0978V33.5587L55.855 32L60.3539 34.2632V38.8008L77.426 44.7474L87 62.5925L82.1542 61.938L82.1598 64.8558L80.4476 64.8225L80.4532 61.705L56.7056 58.4821L56.7671 65H54.9765L54.7023 58.593L53.337 58.4821L43.0691 39.0116L41.8549 37.2421L28.4255 55.936V65H26.2097V58.9813H22.6397V65H20.7092V58.8371L14.7108 47.0106L5.6907 60.8674L5.63474 64.645Z" fill="#E9E9E9"/>
<path d="M12.4334 55.3926H10.4805V57.3285H12.4334V55.3926Z" fill="#E9E9E9"/>
<path d="M15.2759 55.3926H13.3231V57.3285H15.2759V55.3926Z" fill="#E9E9E9"/>
<path d="M12.4334 57.7441H10.4805V59.6801H12.4334V57.7441Z" fill="#E9E9E9"/>
<path d="M15.2759 57.7441H13.3231V59.6801H15.2759V57.7441Z" fill="#E9E9E9"/>
<path d="M40.0195 49.0244H37.675V51.3487H40.0195V49.0244Z" fill="#E9E9E9"/>
<path d="M43.4329 49.0244H41.0883V51.3487H43.4329V49.0244Z" fill="#E9E9E9"/>
<path d="M40.0195 51.8535H37.675V54.1778H40.0195V51.8535Z" fill="#E9E9E9"/>
<path d="M43.4329 51.8535H41.0883V54.1778H43.4329V51.8535Z" fill="#E9E9E9"/>
</g>
<defs>
<clipPath id="clip0_154_190">
<rect width="87" height="33" fill="white" transform="translate(0 32)"/>
</clipPath>
</defs>
</svg>
