<svg xmlns="http://www.w3.org/2000/svg" width="24" height="25" viewBox="0 0 24 25" fill="none">
    <g clip-path="url(#clip0_248_141)">
        <path d="M23.19 12.7672C23.19 11.9741 23.1257 11.1768 22.9885 10.3966H11.9843V14.8892H18.2859C18.0244 16.3381 17.1842 17.6198 15.9539 18.4343V21.3493H19.7134C21.9211 19.3174 23.19 16.3167 23.19 12.7672Z" fill="#4285F4"/>
        <path d="M11.9843 24.1657C15.1308 24.1657 17.7843 23.1326 19.7177 21.3493L15.9582 18.4343C14.9122 19.1459 13.5618 19.5489 11.9886 19.5489C8.94497 19.5489 6.36433 17.4955 5.43838 14.7348H1.55884V17.7398C3.53933 21.6794 7.5732 24.1657 11.9843 24.1657V24.1657Z" fill="#34A853"/>
        <path d="M5.43415 14.7348C4.94546 13.2859 4.94546 11.7169 5.43415 10.268V7.26294H1.5589C-0.0958037 10.5595 -0.0958037 14.4433 1.5589 17.7398L5.43415 14.7348V14.7348Z" fill="#FBBC04"/>
        <path d="M11.9843 5.44963C13.6476 5.42391 15.2551 6.04978 16.4597 7.19864L19.7905 3.8678C17.6814 1.88731 14.8822 0.798462 11.9843 0.832756C7.5732 0.832756 3.53933 3.31909 1.55884 7.26294L5.43409 10.268C6.35575 7.503 8.94068 5.44963 11.9843 5.44963V5.44963Z" fill="#EA4335"/>
    </g>
    <defs>
        <clipPath id="clip0_248_141">
        <rect width="23.333" height="23.333" fill="white" transform="translate(0.0845337 0.83197)"/>
        </clipPath>
    </defs>
</svg>