<svg width="25" height="24" viewBox="0 0 25 24" fill="none" xmlns="http://www.w3.org/2000/svg">
<path d="M5.16667 2.83301C4.19421 2.83301 3.26157 3.21932 2.57394 3.90695C1.88631 4.59458 1.5 5.52721 1.5 6.49967V6.86818L12.5 12.7917L23.5 6.87001V6.49967C23.5 5.52721 23.1137 4.59458 22.4261 3.90695C21.7384 3.21932 20.8058 2.83301 19.8333 2.83301H5.16667ZM23.5 8.95084L12.9345 14.6397C12.801 14.7116 12.6517 14.7492 12.5 14.7492C12.3483 14.7492 12.199 14.7116 12.0655 14.6397L1.5 8.95084V17.4997C1.5 18.4721 1.88631 19.4048 2.57394 20.0924C3.26157 20.78 4.19421 21.1663 5.16667 21.1663H19.8333C20.8058 21.1663 21.7384 20.78 22.4261 20.0924C23.1137 19.4048 23.5 18.4721 23.5 17.4997V8.95084Z" fill="#4F886B"/>
</svg>
