<svg width="25" height="24" viewBox="0 0 25 24" fill="none" xmlns="http://www.w3.org/2000/svg">
<g clip-path="url(#clip0_33_4162)">
<path d="M10.6472 13.7601C12.0388 15.1718 13.7227 16.2618 15.5805 16.9534L18.0938 14.9534C18.1683 14.9021 18.2567 14.8746 18.3472 14.8746C18.4376 14.8746 18.526 14.9021 18.6005 14.9534L23.2672 17.9601C23.4443 18.0666 23.5943 18.2128 23.7052 18.3873C23.8162 18.5617 23.885 18.7595 23.9063 18.9652C23.9277 19.1708 23.9009 19.3785 23.8282 19.572C23.7554 19.7655 23.6387 19.9394 23.4872 20.0801L21.3005 22.2401C20.9873 22.5495 20.6025 22.7766 20.1802 22.901C19.7579 23.0255 19.3114 23.0435 18.8805 22.9534C14.582 22.0656 10.6199 19.9864 7.44715 16.9534C4.34481 13.8902 2.198 9.99264 1.26715 5.7334C1.1752 5.30916 1.19439 4.86836 1.32287 4.45372C1.45135 4.03908 1.68476 3.66465 2.00048 3.36674L4.26715 1.18007C4.40742 1.03593 4.57848 0.925387 4.76752 0.856722C4.95656 0.788057 5.15868 0.763049 5.35876 0.78357C5.55883 0.80409 5.75168 0.869608 5.92284 0.975217C6.09401 1.08083 6.23907 1.22379 6.34715 1.3934L9.45382 6.00007C9.5074 6.07241 9.53633 6.16005 9.53633 6.25007C9.53633 6.34009 9.5074 6.42773 9.45382 6.50007L7.40715 8.96007C8.11754 10.7807 9.22431 12.4204 10.6472 13.7601V13.7601Z" fill="#4F886B"/>
</g>
<defs>
<clipPath id="clip0_33_4162">
<rect width="24" height="24" fill="white" transform="translate(0.399902)"/>
</clipPath>
</defs>
</svg>
