<svg width="44" height="44" viewBox="0 0 44 44" fill="none" xmlns="http://www.w3.org/2000/svg">
<path d="M21.9004 0.125C9.82031 0.125 0.0253906 9.91992 0.0253906 22C0.0253906 34.0801 9.82031 43.875 21.9004 43.875C33.9805 43.875 43.7754 34.0801 43.7754 22C43.7754 9.91992 33.9805 0.125 21.9004 0.125ZM32.4131 16.6143C32.4277 16.8437 32.4277 17.083 32.4277 17.3174C32.4277 24.4854 26.9688 32.7422 16.9932 32.7422C13.917 32.7422 11.0654 31.8486 8.66309 30.3105C9.10254 30.3594 9.52246 30.3789 9.97168 30.3789C12.5107 30.3789 14.8447 29.5195 16.7051 28.0645C14.3223 28.0156 12.3203 26.4531 11.6367 24.3047C12.4717 24.4268 13.2236 24.4268 14.083 24.207C12.8561 23.9578 11.7533 23.2914 10.962 22.3212C10.1707 21.351 9.73968 20.1368 9.74219 18.8848V18.8164C10.46 19.2217 11.3047 19.4707 12.1885 19.5049C11.4455 19.0097 10.8362 18.3389 10.4146 17.5519C9.99299 16.7649 9.77209 15.886 9.77148 14.9932C9.77148 13.9824 10.0352 13.0596 10.5088 12.2588C11.8706 13.9352 13.57 15.3064 15.4964 16.283C17.4228 17.2597 19.5332 17.8201 21.6904 17.9277C20.9238 14.2412 23.6777 11.2578 26.9883 11.2578C28.5508 11.2578 29.957 11.9121 30.9482 12.9668C32.1738 12.7373 33.3457 12.2783 34.3906 11.6631C33.9854 12.918 33.1357 13.9775 32.0078 14.6465C33.1016 14.5293 34.1562 14.2266 35.1328 13.8018C34.3955 14.8857 33.4727 15.8477 32.4131 16.6143Z" fill="#4F886B"/>
</svg>
