<?xml version="1.0" encoding="UTF-8"?>
<svg xmlns="http://www.w3.org/2000/svg" id="Layer_1" data-name="Layer 1" viewBox="0 0 24 24">
  <path d="m23.124,13.184c-.664-.752-1.62-1.184-2.624-1.184H3v-7.167c0-1.011.822-1.833,1.833-1.833.574,0,1.122.274,1.467.732l.541.722-.365,2.094c-.058.334.011.678.194.963.425.662,1.323.824,1.952.352l3.606-2.704c.567-.425.71-1.217.327-1.814l-.013-.021c-.237-.37-.64-.602-1.079-.622l-2.26-.101-.364-.485C7.977.97,6.096-.047,4.661.003,2.075.094,0,2.226,0,4.833c0,0,.007,6.946.01,8.527,0,.212.014.418.04.628.082.66.268,2.141.268,2.141.23,1.842,1.092,3.471,2.351,4.679l-.466.931c-.359.718-.164,1.639.527,2.048.244.144.509.212.769.212.55,0,1.08-.304,1.343-.829l.363-.726c.899.359,1.877.555,2.895.555h8.066c.934,0,1.835-.166,2.672-.47l.32.641c.263.525.793.829,1.343.829.26,0,.525-.068.769-.212.691-.409.886-1.33.527-2.048l-.381-.763c1.357-1.224,2.291-2.919,2.532-4.848l.024-.195c.125-.996-.185-1.998-.849-2.751Zm-15.024,6.816c-2.438,0-4.504-1.823-4.806-4.242l-.095-.758h17.301c.196,0,.319.105.375.169s.146.198.121.394l-.024.196c-.172,1.381-.921,2.568-1.985,3.332,0,0-.987.909-2.82.909h-8.066Z"/>
</svg>
